<?xml version="1.0" standalone="no"?>
<!DOCTYPE svg PUBLIC "-//W3C//DTD SVG 20010904//EN"
 "http://www.w3.org/TR/2001/REC-SVG-20010904/DTD/svg10.dtd">
<svg version="1.0" xmlns="http://www.w3.org/2000/svg"
 width="594.000000pt" height="594.000000pt" viewBox="0 0 594.000000 594.000000"
 preserveAspectRatio="xMidYMid meet">
<metadata>
Created by potrace 1.14, written by Peter Selinger 2001-2017
</metadata>
<g transform="translate(0.000000,594.000000) scale(0.100000,-0.100000)"
fill="#000000" stroke="none">
<path d="M4058 5936 c-1 -2 -32 -7 -68 -10 -36 -4 -90 -11 -120 -16 -30 -5
-71 -12 -90 -15 -19 -3 -71 -15 -115 -26 -85 -22 -149 -27 -230 -16 -234 30
-567 26 -677 -9 -9 -2 -25 -6 -35 -8 -68 -14 -214 -68 -298 -112 l-59 -32 -53
19 c-29 10 -53 15 -53 12 0 -3 -7 1 -17 8 -9 8 -18 13 -20 12 -1 -2 -4 -3 -5
-2 -2 0 -10 2 -18 4 -8 2 -51 13 -95 24 -95 23 -228 51 -270 57 -28 3 -73 10
-136 20 -22 3 -236 16 -264 16 -23 -1 -193 -12 -235 -16 -85 -8 -267 -52 -335
-81 -94 -40 -155 -70 -193 -96 -24 -16 -46 -29 -49 -29 -29 0 -224 -196 -282
-283 -22 -34 -44 -67 -48 -72 -5 -6 -25 -46 -45 -90 -81 -173 -128 -363 -142
-568 -2 -32 -7 -61 -10 -64 -3 -4 -1 -12 5 -19 5 -7 6 -14 2 -17 -12 -8 -3
-308 11 -387 3 -14 10 -54 16 -90 5 -36 13 -78 16 -95 3 -16 7 -39 9 -50 21
-139 95 -464 155 -690 23 -82 42 -157 45 -165 14 -56 60 -204 95 -305 22 -66
42 -127 44 -135 6 -20 74 -199 86 -225 5 -11 25 -58 45 -105 57 -133 178 -357
220 -407 5 -6 21 -28 35 -48 28 -39 131 -149 170 -180 182 -143 392 -167 587
-67 29 15 53 30 53 35 0 4 5 7 11 7 6 0 17 7 25 15 13 13 20 10 56 -25 43 -40
186 -120 216 -120 10 0 23 -5 30 -12 7 -7 12 -9 12 -6 0 4 15 2 33 -3 122 -36
339 -42 477 -15 47 9 109 26 139 37 29 11 55 18 57 17 1 -2 5 -67 7 -144 2
-78 7 -146 11 -152 3 -6 2 -13 -4 -17 -6 -4 -8 -10 -5 -14 2 -5 7 -48 10 -97
3 -49 8 -109 11 -133 3 -24 7 -62 10 -85 7 -74 15 -120 31 -181 8 -33 16 -64
18 -70 1 -5 5 -17 8 -25 3 -8 15 -44 28 -80 70 -207 167 -341 307 -423 52 -30
155 -69 192 -72 9 0 20 -4 25 -7 19 -12 251 0 330 16 313 66 498 172 644 369
43 59 131 226 131 250 0 8 3 17 7 21 4 3 8 12 9 19 1 7 9 31 18 55 8 23 15 44
16 47 0 3 0 6 1 8 3 11 37 170 43 202 3 15 8 49 12 74 3 25 8 57 10 71 9 59
22 236 29 384 2 55 7 111 10 125 l5 26 123 0 c110 0 186 6 272 20 65 11 80 14
80 15 0 1 11 3 25 6 14 2 41 10 60 16 19 7 40 12 45 13 16 0 106 37 145 58 19
10 53 29 75 40 22 12 42 24 45 27 3 3 31 22 62 42 85 56 193 169 225 236 35
73 42 169 18 242 -20 61 -88 133 -148 160 -54 24 -197 45 -197 30 0 -3 -10 -5
-22 -6 -36 -1 -141 -18 -178 -29 -8 -2 -52 -7 -97 -11 -79 -6 -95 -1 -74 21
31 33 275 507 296 575 1 3 13 31 28 64 15 32 27 60 27 61 0 2 10 25 22 52 24
55 22 49 33 88 4 17 11 35 15 40 12 16 109 306 141 423 41 146 40 144 46 172
2 14 7 32 10 40 3 8 7 22 8 30 1 8 5 26 8 40 13 54 16 70 23 117 5 26 9 50 9
53 3 9 16 95 21 130 10 81 17 202 17 305 0 97 -3 136 -17 235 -11 71 -70 230
-88 238 -5 2 -8 9 -8 16 0 7 -10 24 -23 38 -12 13 -33 38 -45 54 -54 69 -196
205 -266 254 -12 8 -27 20 -34 27 -43 41 -260 160 -377 205 -60 23 -228 74
-276 83 -19 3 -43 8 -54 10 -11 2 -40 7 -65 10 -25 4 -56 9 -70 12 -27 5 -436
14 -442 9z"/>
</g>
</svg>
