<?xml version="1.0" standalone="no"?>
<!DOCTYPE svg PUBLIC "-//W3C//DTD SVG 20010904//EN"
 "http://www.w3.org/TR/2001/REC-SVG-20010904/DTD/svg10.dtd">
<svg version="1.0" xmlns="http://www.w3.org/2000/svg"
 width="700.000000pt" height="700.000000pt" viewBox="0 0 700.000000 700.000000"
 preserveAspectRatio="xMidYMid meet">
<metadata>
Created by potrace 1.14, written by Peter Selinger 2001-2017
</metadata>
<g transform="translate(0.000000,700.000000) scale(0.100000,-0.100000)"
fill="#000000" stroke="none">
<path d="M4671 6984 c-139 -17 -298 -47 -413 -77 -81 -22 -91 -23 -175 -10
-487 71 -878 26 -1211 -141 l-87 -43 -55 19 c-69 24 -330 92 -435 113 -1160
235 -1951 -181 -2139 -1125 -75 -374 -61 -718 49 -1267 153 -759 375 -1468
606 -1933 220 -443 451 -673 730 -728 149 -29 315 9 449 102 l62 43 31 -29
c121 -112 288 -180 513 -209 144 -18 355 -7 477 25 55 15 108 31 119 37 42 23
44 12 51 -221 14 -458 44 -673 127 -913 72 -209 132 -318 229 -415 222 -222
525 -269 956 -146 600 171 860 623 915 1590 6 104 13 217 16 250 l5 62 147 0
c286 1 540 56 754 163 232 116 401 263 471 409 42 87 49 199 18 281 -44 117
-155 199 -297 220 -61 9 -92 7 -254 -19 -187 -31 -300 -44 -300 -36 0 2 29 55
64 117 380 669 660 1459 752 2122 26 183 26 526 1 645 -50 232 -109 333 -317
540 -331 330 -750 524 -1255 580 -126 14 -468 11 -604 -6z m723 -208 c161 -28
363 -90 499 -154 193 -91 359 -213 531 -393 97 -101 124 -136 156 -203 51
-109 71 -203 77 -373 26 -703 -366 -1871 -914 -2721 l-53 -83 42 -19 c115 -50
339 -52 593 -6 77 14 166 26 198 26 106 0 167 -51 167 -140 0 -56 -19 -96 -76
-159 -107 -119 -335 -255 -509 -305 -169 -48 -266 -60 -475 -60 -133 -1 -209
3 -239 12 -23 7 -45 12 -47 10 -2 -3 -17 -119 -34 -259 -69 -575 -118 -919
-152 -1059 -95 -391 -317 -586 -778 -680 -140 -29 -330 -24 -434 10 -181 61
-321 197 -417 405 -48 106 -65 164 -83 300 -28 199 -37 364 -43 788 -3 229 -7
417 -9 417 -2 0 -34 -23 -71 -52 -223 -169 -538 -220 -859 -138 -248 64 -367
217 -269 346 36 47 131 90 275 124 171 41 258 68 305 95 33 19 185 189 185
207 0 3 -30 9 -66 13 -82 8 -191 38 -267 72 l-58 26 -31 -29 c-43 -41 -341
-376 -459 -515 -156 -186 -238 -247 -364 -274 -259 -54 -501 153 -735 630
-247 501 -489 1323 -632 2140 -32 184 -33 199 -33 460 0 233 3 286 22 390 61
337 162 547 357 741 227 226 506 333 916 351 313 13 734 -55 1091 -175 l117
-40 28 20 c16 10 65 37 109 60 212 108 397 149 680 149 169 0 286 -11 430 -40
88 -18 89 -18 159 5 142 44 382 90 576 108 25 2 135 2 245 1 158 -3 231 -9
349 -29z"/>
<path d="M4795 6613 c-72 -6 -259 -33 -288 -41 -27 -7 -23 -10 65 -55 349
-176 670 -478 893 -837 77 -125 177 -332 215 -449 29 -87 32 -103 31 -225 -1
-82 -11 -195 -27 -306 -37 -253 -41 -423 -14 -645 52 -436 33 -653 -76 -883
-34 -74 -42 -98 -33 -113 5 -10 14 -19 19 -19 12 0 150 231 245 410 339 641
577 1359 636 1920 15 144 6 404 -16 485 -25 88 -45 121 -134 222 -316 358
-780 547 -1326 541 -82 -1 -168 -3 -190 -5z"/>
<path d="M3473 6539 c-270 -27 -500 -131 -686 -309 -277 -265 -426 -625 -503
-1217 -3 -24 -3 -43 1 -43 3 0 32 13 65 30 160 81 351 136 505 146 166 11 313
-35 412 -129 104 -98 145 -194 187 -442 40 -234 49 -359 43 -559 -9 -274 -41
-402 -181 -728 -57 -133 -156 -400 -156 -420 0 -2 33 -3 73 -3 155 -1 286
-106 337 -272 18 -60 20 -96 19 -571 0 -844 28 -1159 122 -1345 65 -128 165
-228 271 -269 77 -30 245 -36 364 -13 354 70 529 206 613 478 27 87 60 288
105 632 57 435 96 778 106 934 5 80 13 160 18 176 18 61 62 132 102 169 40 36
131 86 158 86 19 0 16 7 -52 93 -85 109 -150 212 -187 294 -16 36 -73 144
-125 239 -337 613 -458 1000 -399 1279 41 194 176 325 390 381 55 14 109 18
247 19 173 0 178 1 172 20 -4 11 -28 68 -54 127 -159 358 -443 700 -761 913
-217 146 -488 250 -754 289 -134 20 -339 27 -452 15z"/>
<path d="M1470 6520 c-479 -66 -769 -299 -899 -725 -57 -185 -66 -262 -66
-560 0 -251 2 -281 28 -425 48 -270 86 -447 157 -737 218 -885 488 -1535 736
-1774 109 -104 177 -131 268 -105 68 20 122 68 269 240 110 129 206 238 361
409 l79 87 -55 58 c-79 83 -139 168 -186 264 -97 200 -121 387 -87 663 23 177
29 463 16 685 -39 659 155 1328 491 1694 33 37 59 68 57 70 -2 2 -60 20 -129
39 -309 87 -499 117 -775 122 -110 2 -229 0 -265 -5z"/>
<path d="M5139 4975 c-286 -57 -350 -291 -199 -728 55 -161 148 -361 281 -605
62 -114 132 -247 157 -297 l44 -90 19 37 c10 19 28 73 41 119 32 119 32 369
-1 639 -28 230 -25 414 9 625 11 72 23 169 27 216 l6 86 -48 6 c-77 11 -264 6
-336 -8z m161 -100 c56 -29 29 -103 -56 -156 -103 -63 -287 38 -213 117 46 49
206 72 269 39z"/>
<path d="M2789 4951 c-83 -16 -193 -49 -278 -85 -88 -37 -211 -106 -228 -128
-6 -9 -6 -78 0 -208 10 -192 -2 -530 -23 -670 -44 -285 47 -574 236 -750 127
-119 307 -199 445 -200 l36 0 21 73 c22 73 95 264 196 508 82 198 106 313 113
534 6 199 -3 313 -43 535 -43 237 -79 307 -188 360 -52 26 -77 32 -152 35 -49
2 -110 0 -135 -4z m248 -126 c107 -32 133 -96 64 -158 -46 -41 -106 -61 -156
-51 -72 13 -155 97 -155 157 0 61 127 88 247 52z"/>
<path d="M5503 2689 c-102 -32 -147 -104 -141 -227 3 -57 3 -57 43 -71 24 -9
97 -16 186 -19 248 -7 460 35 640 130 93 48 216 135 206 145 -3 2 -63 -6 -134
-18 -101 -18 -166 -23 -308 -23 -203 0 -266 11 -370 68 l-61 33 -61 -18z"/>
<path d="M3170 2654 c-17 -15 -66 -70 -109 -123 -154 -189 -204 -219 -484
-288 -100 -25 -189 -49 -197 -53 -11 -7 -1 -15 40 -34 98 -45 182 -60 340 -60
165 -1 229 12 346 70 142 70 294 226 294 301 0 111 -84 213 -174 213 -13 0
-39 -12 -56 -26z"/>
</g>
</svg>
